<mxfile host="app.diagrams.net" modified="2022-03-03T08:45:16.528Z" agent="5.0 (Windows)" etag="5WTkBSDRiNGXmnghiunK" version="16.6.4" type="github">
  <diagram id="BQgAChhRvc0FZDwcP7ui" name="Page-1">
    <mxGraphModel dx="1360" dy="792" grid="1" gridSize="10" guides="1" tooltips="1" connect="1" arrows="1" fold="1" page="1" pageScale="1" pageWidth="827" pageHeight="1169" math="0" shadow="0">
      <root>
        <mxCell id="0" />
        <mxCell id="1" parent="0" />
        <mxCell id="JLIWyVw1twjcDsXLzSWL-1" value="" style="ellipse;whiteSpace=wrap;html=1;" vertex="1" parent="1">
          <mxGeometry x="590" y="90" width="120" height="80" as="geometry" />
        </mxCell>
        <mxCell id="JLIWyVw1twjcDsXLzSWL-2" value="" style="rounded=0;whiteSpace=wrap;html=1;" vertex="1" parent="1">
          <mxGeometry x="200" y="470" width="170" height="160" as="geometry" />
        </mxCell>
        <mxCell id="JLIWyVw1twjcDsXLzSWL-3" value="" style="triangle;whiteSpace=wrap;html=1;rotation=-90;" vertex="1" parent="1">
          <mxGeometry x="205" y="295" width="160" height="190" as="geometry" />
        </mxCell>
      </root>
    </mxGraphModel>
  </diagram>
</mxfile>
